<svg width="1024" height="1024" viewBox="0 0 1024 1024" fill="none" xmlns="http://www.w3.org/2000/svg">
<path d="M742.4 0C897.923 0.000214415 1024 126.077 1024 281.6C1024 376.84 976.718 461.037 904.348 512C976.718 562.963 1024 647.16 1024 742.4C1024 897.923 897.923 1024 742.4 1024C647.16 1024 562.963 976.718 512 904.348C461.037 976.718 376.84 1024 281.6 1024C126.077 1024 0.000214467 897.923 0 742.4C0 647.16 47.2812 562.963 119.651 512C47.2812 461.037 0 376.84 0 281.6C0.000214415 126.077 126.077 0.000215498 281.6 0C376.84 0 461.037 47.2812 512 119.651C562.963 47.2812 647.16 0 742.4 0ZM488.23 246.489L419.162 419.16L246.492 488.229V535.767L419.162 604.835L488.23 777.505H535.769L604.836 604.835L777.508 535.767V488.229L604.837 419.16L535.769 246.489H488.23Z" fill="#0077FF"/>
</svg>
