<svg width="20" height="20" viewBox="0 0 20 20" fill="none" xmlns="http://www.w3.org/2000/svg">
<path fill-rule="evenodd" clip-rule="evenodd" d="M1.52779 10C0.577707 8.93849 0 7.53671 0 6C0 2.68629 2.68629 0 6 0C7.53671 0 8.93849 0.577707 10 1.52779C11.0615 0.577707 12.4633 0 14 0C17.3137 0 20 2.68629 20 6C20 7.53671 19.4223 8.93849 18.4722 10C19.4223 11.0615 20 12.4633 20 14C20 17.3137 17.3137 20 14 20C12.4633 20 11.0615 19.4223 10 18.4722C8.93849 19.4223 7.53671 20 6 20C2.68629 20 0 17.3137 0 14C0 12.4633 0.577707 11.0615 1.52779 10ZM11.9162 7.22355L11.4205 5.96676C10.9121 4.67775 9.08787 4.67775 8.57949 5.96676L8.08382 7.22355C7.92861 7.61709 7.61709 7.92861 7.22355 8.08382L5.96676 8.57949C4.67775 9.08787 4.67775 10.9121 5.96676 11.4205L7.22355 11.9162C7.61709 12.0714 7.92861 12.3829 8.08382 12.7765L8.57949 14.0332C9.08787 15.3223 10.9121 15.3223 11.4205 14.0332L11.9162 12.7765C12.0714 12.3829 12.3829 12.0714 12.7765 11.9162L14.0332 11.4205C15.3223 10.9121 15.3223 9.08787 14.0332 8.57949L12.7765 8.08382C12.3829 7.92861 12.0714 7.61709 11.9162 7.22355Z" fill="#0088ff"/>
</svg>
