
<svg width="54" height="54" viewBox="0 0 54 54" fill="none" xmlns="http://www.w3.org/2000/svg">
<g filter="url(#filter0_diii_6536_739)">
<path fill-rule="evenodd" clip-rule="evenodd" d="M5.81947 25C3.44427 22.3462 2 18.8418 2 15C2 6.71573 8.71573 0 17 0C20.8418 0 24.3462 1.44427 27 3.81947C29.6538 1.44427 33.1582 0 37 0C45.2843 0 52 6.71573 52 15C52 18.8418 50.5557 22.3462 48.1805 25C50.5557 27.6538 52 31.1582 52 35C52 43.2843 45.2843 50 37 50C33.1582 50 29.6538 48.5557 27 46.1805C24.3462 48.5557 20.8418 50 17 50C8.71573 50 2 43.2843 2 35C2 31.1582 3.44427 27.6538 5.81947 25ZM31.7735 17.8583L30.7593 15.1173C29.4679 11.6276 24.5321 11.6276 23.2407 15.1173L22.2265 17.8583C21.8205 18.9554 20.9554 19.8205 19.8583 20.2265L17.1173 21.2407C13.6276 22.5321 13.6276 27.4679 17.1173 28.7593L19.8583 29.7735C20.9554 30.1795 21.8205 31.0446 22.2265 32.1417L23.2407 34.8827C24.5321 38.3724 29.4679 38.3724 30.7593 34.8827L31.7735 32.1417C32.1795 31.0446 33.0446 30.1795 34.1417 29.7735L36.8827 28.7593C40.3724 27.4679 40.3724 22.5321 36.8827 21.2407L34.1417 20.2265C33.0446 19.8205 32.1795 18.9554 31.7735 17.8583Z" fill="white"/>
<path fill-rule="evenodd" clip-rule="evenodd" d="M5.81947 25C3.44427 22.3462 2 18.8418 2 15C2 6.71573 8.71573 0 17 0C20.8418 0 24.3462 1.44427 27 3.81947C29.6538 1.44427 33.1582 0 37 0C45.2843 0 52 6.71573 52 15C52 18.8418 50.5557 22.3462 48.1805 25C50.5557 27.6538 52 31.1582 52 35C52 43.2843 45.2843 50 37 50C33.1582 50 29.6538 48.5557 27 46.1805C24.3462 48.5557 20.8418 50 17 50C8.71573 50 2 43.2843 2 35C2 31.1582 3.44427 27.6538 5.81947 25ZM31.7735 17.8583L30.7593 15.1173C29.4679 11.6276 24.5321 11.6276 23.2407 15.1173L22.2265 17.8583C21.8205 18.9554 20.9554 19.8205 19.8583 20.2265L17.1173 21.2407C13.6276 22.5321 13.6276 27.4679 17.1173 28.7593L19.8583 29.7735C20.9554 30.1795 21.8205 31.0446 22.2265 32.1417L23.2407 34.8827C24.5321 38.3724 29.4679 38.3724 30.7593 34.8827L31.7735 32.1417C32.1795 31.0446 33.0446 30.1795 34.1417 29.7735L36.8827 28.7593C40.3724 27.4679 40.3724 22.5321 36.8827 21.2407L34.1417 20.2265C33.0446 19.8205 32.1795 18.9554 31.7735 17.8583Z" fill="url(#paint0_linear_6536_739)"/>
</g>
<defs>
<filter id="filter0_diii_6536_739" x="0" y="-2" width="54" height="56" filterUnits="userSpaceOnUse" color-interpolation-filters="sRGB">
<feFlood flood-opacity="0" result="BackgroundImageFix"/>
<feColorMatrix in="SourceAlpha" type="matrix" values="0 0 0 0 0 0 0 0 0 0 0 0 0 0 0 0 0 0 127 0" result="hardAlpha"/>
<feOffset dy="2"/>
<feGaussianBlur stdDeviation="1"/>
<feComposite in2="hardAlpha" operator="out"/>
<feColorMatrix type="matrix" values="0 0 0 0 0 0 0 0 0 0.133333 0 0 0 0 0.6 0 0 0 0.25 0"/>
<feBlend mode="normal" in2="BackgroundImageFix" result="effect1_dropShadow_6536_739"/>
<feBlend mode="normal" in="SourceGraphic" in2="effect1_dropShadow_6536_739" result="shape"/>
<feColorMatrix in="SourceAlpha" type="matrix" values="0 0 0 0 0 0 0 0 0 0 0 0 0 0 0 0 0 0 127 0" result="hardAlpha"/>
<feOffset dy="-2"/>
<feGaussianBlur stdDeviation="2"/>
<feComposite in2="hardAlpha" operator="arithmetic" k2="-1" k3="1"/>
<feColorMatrix type="matrix" values="0 0 0 0 0 0 0 0 0 0.533333 0 0 0 0 1 0 0 0 0.5 0"/>
<feBlend mode="normal" in2="shape" result="effect2_innerShadow_6536_739"/>
<feColorMatrix in="SourceAlpha" type="matrix" values="0 0 0 0 0 0 0 0 0 0 0 0 0 0 0 0 0 0 127 0" result="hardAlpha"/>
<feOffset/>
<feGaussianBlur stdDeviation="1"/>
<feComposite in2="hardAlpha" operator="arithmetic" k2="-1" k3="1"/>
<feColorMatrix type="matrix" values="0 0 0 0 1 0 0 0 0 1 0 0 0 0 1 0 0 0 1 0"/>
<feBlend mode="normal" in2="effect2_innerShadow_6536_739" result="effect3_innerShadow_6536_739"/>
<feColorMatrix in="SourceAlpha" type="matrix" values="0 0 0 0 0 0 0 0 0 0 0 0 0 0 0 0 0 0 127 0" result="hardAlpha"/>
<feOffset/>
<feGaussianBlur stdDeviation="1"/>
<feComposite in2="hardAlpha" operator="arithmetic" k2="-1" k3="1"/>
<feColorMatrix type="matrix" values="0 0 0 0 1 0 0 0 0 1 0 0 0 0 1 0 0 0 0.5 0"/>
<feBlend mode="normal" in2="effect3_innerShadow_6536_739" result="effect4_innerShadow_6536_739"/>
</filter>
<linearGradient id="paint0_linear_6536_739" x1="27" y1="0" x2="27" y2="50" gradientUnits="userSpaceOnUse">
<stop stop-color="#0088FF" stop-opacity="0"/>
<stop offset="1" stop-color="#0088FF" stop-opacity="0.1"/>
</linearGradient>
</defs>
</svg>
